<?xml version="1.0" encoding="UTF-8"?>
<!DOCTYPE svg PUBLIC "-//W3C//DTD SVG 1.1//EN" "http://www.w3.org/Graphics/SVG/1.1/DTD/svg11.dtd">
<!-- Creator: CorelDRAW X7 -->
<svg xmlns="http://www.w3.org/2000/svg" xml:space="preserve" width="2.00396in" height="2.17691in" version="1.1" style="shape-rendering:geometricPrecision; text-rendering:geometricPrecision; image-rendering:optimizeQuality; fill-rule:evenodd; clip-rule:evenodd"
viewBox="0 0 462 502"
 xmlns:xlink="http://www.w3.org/1999/xlink">
 <defs>
  <style type="text/css">
   <![CDATA[
    .fil0 {fill:#2B2A29}
   ]]>
  </style>
 </defs>
 <g id="Layer_x0020_1">
  <metadata id="CorelCorpID_0Corel-Layer"/>
  <path class="fil0" d="M254 298l-54 -1c8,34 19,54 19,97 0,24 -9,77 -27,86 -16,-49 -8,-84 -53,-146 -21,-28 -70,-74 -115,-86 3,4 1,2 6,6l24 15c10,7 19,14 29,22 91,80 84,194 96,211 32,-13 87,-60 106,-79 24,-24 64,-71 76,-109 -19,-24 -52,-32 -89,-35 -45,-4 -59,-28 -88,-44 14,45 65,56 70,63z"/>
  <path class="fil0" d="M338 45c-3,3 -1,2 -10,5 -12,4 -25,1 -35,5 26,12 114,-12 113,35 0,13 -10,23 -16,56 -3,16 -7,56 -3,68l6 -28c13,5 21,19 29,30 34,45 45,80 39,140 -9,-3 -3,1 -10,-9 -161,-234 -279,-156 -427,-258 -67,-46 7,-160 222,0 -12,-21 -41,-33 -59,-50 25,-46 110,-60 151,6z"/>
 </g>
</svg>
